<svg width="317" height="317" viewBox="0 0 317 317" fill="none" xmlns="http://www.w3.org/2000/svg">
<path fill-rule="evenodd" clip-rule="evenodd" d="M316.124 158.062C316.124 245.357 245.357 316.124 158.062 316.124C70.7667 316.124 0 245.357 0 158.062C0 70.7667 70.7667 0 158.062 0C245.357 0 316.124 70.7667 316.124 158.062ZM158.062 286.124C228.788 286.124 286.124 228.788 286.124 158.062C286.124 87.3352 228.788 30 158.062 30C87.3352 30 30 87.3352 30 158.062C30 228.788 87.3352 286.124 158.062 286.124Z" fill="white"/>
<path d="M286.124 158.062C286.124 228.788 228.788 286.124 158.062 286.124C87.3352 286.124 30 228.788 30 158.062C30 87.3352 87.3352 30 158.062 30C228.788 30 286.124 87.3352 286.124 158.062Z" fill="#FDD23C"/>
<path d="M192.096 117.682C192.096 153.045 163.429 181.713 128.065 181.713C92.702 181.713 64.0344 153.045 64.0344 117.682C64.0344 82.3186 92.702 53.651 128.065 53.651C163.429 53.651 192.096 82.3186 192.096 117.682Z" fill="white"/>
<path d="M96.3382 197.865C96.3382 206.785 89.1068 214.017 80.1863 214.017C71.2658 214.017 64.0344 206.785 64.0344 197.865C64.0344 188.944 71.2658 181.713 80.1863 181.713C89.1068 181.713 96.3382 188.944 96.3382 197.865Z" fill="white"/>
</svg>
