<svg width="401" height="134" viewBox="0 0 401 134" fill="none" xmlns="http://www.w3.org/2000/svg">
<path fill-rule="evenodd" clip-rule="evenodd" d="M374.699 61.9483L388.258 61.9483C386.15 55.3778 379.988 50.6205 372.716 50.6205C363.703 50.6205 356.397 57.9267 356.397 66.9395C356.397 75.9523 363.703 83.2585 372.716 83.2585C376.02 83.2585 378.699 85.9369 378.699 89.2409C378.699 92.5448 376.02 95.2232 372.716 95.2232C357.096 95.2232 344.433 82.5602 344.433 66.9395C344.433 51.3188 357.096 38.6558 372.716 38.6558C388.337 38.6558 401 51.3188 401 66.9395C401 68.1086 400.929 69.2628 400.79 70.3978L400.361 73.913H374.699C371.395 73.913 368.716 71.2346 368.716 67.9307C368.716 64.6267 371.395 61.9483 374.699 61.9483Z" fill="white"/>
<path fill-rule="evenodd" clip-rule="evenodd" d="M311.228 89.2409C311.228 92.5448 313.907 95.2232 317.211 95.2232C320.515 95.2232 323.193 92.5448 323.193 89.2409L323.193 5.98235C323.193 2.67839 320.515 0 317.211 0C313.907 0 311.228 2.67839 311.228 5.98235L311.228 89.2409Z" fill="white"/>
<path fill-rule="evenodd" clip-rule="evenodd" d="M233.421 64.9571C233.421 65.1661 233.432 65.3736 233.453 65.5788C233.432 66.03 233.421 66.4836 233.421 66.9395C233.421 82.5601 246.084 95.2232 261.705 95.2232C277.326 95.2232 289.989 82.5601 289.989 66.9395C289.989 51.3188 277.326 38.6557 261.705 38.6557C255.625 38.6557 249.995 40.575 245.386 43.8364L245.386 5.98235C245.386 2.67839 242.707 0 239.404 0C236.1 0 233.421 2.67839 233.421 5.98235L233.421 64.9571ZM261.705 50.6204C270.718 50.6204 278.024 57.9267 278.024 66.9395C278.024 75.9522 270.718 83.2585 261.705 83.2585C252.692 83.2585 245.386 75.9522 245.386 66.9395C245.386 57.9267 252.692 50.6204 261.705 50.6204Z" fill="white"/>
<path fill-rule="evenodd" clip-rule="evenodd" d="M155.614 64.9571C155.614 65.1661 155.625 65.3736 155.646 65.5788C155.625 66.03 155.614 66.4836 155.614 66.9395C155.614 82.5601 168.277 95.2232 183.898 95.2232C199.519 95.2232 212.182 82.5601 212.182 66.9395C212.182 51.3188 199.519 38.6557 183.898 38.6557C177.818 38.6557 172.188 40.575 167.579 43.8364L167.579 5.98235C167.579 2.67839 164.9 0 161.596 0C158.293 0 155.614 2.67839 155.614 5.98235L155.614 64.9571ZM183.898 50.6204C192.911 50.6204 200.217 57.9267 200.217 66.9395C200.217 75.9522 192.911 83.2585 183.898 83.2585C174.885 83.2585 167.579 75.9522 167.579 66.9395C167.579 57.9267 174.885 50.6204 183.898 50.6204Z" fill="white"/>
<path fill-rule="evenodd" clip-rule="evenodd" d="M108.073 61.9483L121.633 61.9483C119.525 55.3778 113.362 50.6205 106.091 50.6205C97.078 50.6205 89.7718 57.9267 89.7718 66.9395C89.7718 75.9523 97.078 83.2585 106.091 83.2585C109.395 83.2585 112.073 85.9369 112.073 89.2409C112.073 92.5448 109.395 95.2232 106.091 95.2232C90.4701 95.2232 77.8071 82.5602 77.8071 66.9395C77.8071 51.3188 90.4701 38.6558 106.091 38.6558C121.711 38.6558 134.375 51.3188 134.375 66.9395C134.375 68.1086 134.303 69.2628 134.165 70.3978L133.736 73.913H108.073C104.769 73.913 102.091 71.2346 102.091 67.9307C102.091 64.6267 104.769 61.9483 108.073 61.9483Z" fill="white"/>
<path fill-rule="evenodd" clip-rule="evenodd" d="M11.9647 127.897L11.9647 90.0425C16.5739 93.3039 22.2043 95.2232 28.2837 95.2232C43.9044 95.2232 56.5675 82.5602 56.5675 66.9395C56.5675 51.3188 43.9044 38.6558 28.2837 38.6558C12.6631 38.6558 2.6226e-06 51.3188 2.6226e-06 66.9395C2.6226e-06 67.3953 0.0108194 67.849 0.0322378 68.3001C0.0108721 68.5054 2.6226e-06 68.7129 2.6226e-06 68.9218L0 127.897C0 131.201 2.67839 133.879 5.98235 133.879C9.2863 133.879 11.9647 131.201 11.9647 127.897ZM44.6028 66.9395C44.6028 75.9523 37.2965 83.2585 28.2837 83.2585C19.271 83.2585 11.9647 75.9523 11.9647 66.9395C11.9647 57.9267 19.271 50.6205 28.2837 50.6205C37.2965 50.6205 44.6028 57.9267 44.6028 66.9395Z" fill="white"/>
</svg>
